<?xml version="1.0" encoding="UTF-8" standalone="no"?>
<!-- Created with Inkscape (http://www.inkscape.org/) -->

<svg
   width="127.89735mm"
   height="143.54387mm"
   viewBox="0 0 127.89735 143.54387"
   version="1.1"
   id="svg1"
   inkscape:version="1.3.1 (9b9bdc1480, 2023-11-25, custom)"
   sodipodi:docname="In_Rainbows_Raster.svg"
   xmlns:inkscape="http://www.inkscape.org/namespaces/inkscape"
   xmlns:sodipodi="http://sodipodi.sourceforge.net/DTD/sodipodi-0.dtd"
   xmlns="http://www.w3.org/2000/svg"
   xmlns:svg="http://www.w3.org/2000/svg">
  <sodipodi:namedview
     id="namedview1"
     pagecolor="#ffffff"
     bordercolor="#000000"
     borderopacity="0.25"
     inkscape:showpageshadow="2"
     inkscape:pageopacity="0.0"
     inkscape:pagecheckerboard="0"
     inkscape:deskcolor="#d1d1d1"
     inkscape:document-units="mm"
     inkscape:zoom="0.54407051"
     inkscape:cx="759.09279"
     inkscape:cy="358.40943"
     inkscape:window-width="1862"
     inkscape:window-height="1016"
     inkscape:window-x="0"
     inkscape:window-y="0"
     inkscape:window-maximized="1"
     inkscape:current-layer="layer1" />
  <defs
     id="defs1">
    <rect
       x="125.30517"
       y="780.73132"
       width="461.47751"
       height="166.76459"
       id="rect5" />
    <rect
       x="68.384201"
       y="79.453773"
       width="693.5542"
       height="577.79559"
       id="rect3" />
    <rect
       x="24.041405"
       y="137.08543"
       width="424.22278"
       height="197.25343"
       id="rect2" />
    <rect
       x="162.884"
       y="287.90576"
       width="557.69714"
       height="211.84808"
       id="rect1" />
  </defs>
  <g
     inkscape:label="Capa 1"
     inkscape:groupmode="layer"
     id="layer1"
     transform="translate(-38.460908,-60.563125)">
    <text
       xml:space="preserve"
       transform="scale(0.26458333)"
       id="text1"
       style="font-size:64px;font-family:'Roadgeek 2005 Series 6W';-inkscape-font-specification:'Roadgeek 2005 Series 6W';text-align:center;white-space:pre;shape-inside:url(#rect1);fill:#dfee43" />
    <g
       id="text2"
       style="font-size:64px;font-family:'Roadgeek 2005 Series 6W';-inkscape-font-specification:'Roadgeek 2005 Series 6W';text-align:center;white-space:pre;fill:#dfee43"
       transform="matrix(0.26458333,0,0,0.26458333,-7.2742755,37.851124)"
       aria-label="IN/ RAINBOWS&#10;IN RAIN/BOWS&#10;IN RAINBOW/S&#10;IN RAINBOWS/&#10;IN RAIN_BOWS&#10;RA D IOHEA _D&#10;_RAD IO HEA D">
      <path
         style="fill:#f7ff4a"
         d="m 172.85739,93.456634 h 8.64 v 42.751996 h -8.64 z m 17.85596,0 h 8.64 l 20.096,27.327996 V 93.456634 h 8.512 v 42.751996 h -8.448 l -19.968,-27.136 v 27.136 h -8.832 z m 72.89599,-7.616 h 7.936 l -25.472,52.223996 h -7.68 z m 38.46392,7.488 c 0.384,0 1.04533,-0.02133 1.984,-0.064 0.93867,-0.04267 1.92,-0.064 2.944,-0.064 1.06667,-0.04267 2.06933,-0.08533 3.008,-0.128 0.93867,-0.04267 1.6,-0.064 1.984,-0.064 2.47467,0 4.608,0.106667 6.4,0.32 1.83467,0.170667 3.56267,0.512 5.184,1.024 5.248,1.877333 7.872,5.738666 7.872,11.583996 0,2.77333 -0.59733,5.16267 -1.792,7.168 -1.19467,2.00533 -2.98667,3.52 -5.376,4.544 0.17067,0.128 0.34133,0.29867 0.512,0.512 0.17067,0.17067 0.29867,0.34133 0.384,0.512 l 3.712,8.192 c 0.0427,0.0427 0.064,0.14933 0.064,0.32 0.0427,0.128 0.0853,0.21333 0.128,0.256 0.59733,1.408 1.19467,2.85867 1.792,4.352 0.64,1.45067 1.28,2.88 1.92,4.288 v 0.128 h -9.216 c -0.85333,-2.048 -1.70667,-4.05333 -2.56,-6.016 -0.81067,-1.96267 -1.64267,-3.968 -2.496,-6.016 -0.128,-0.0427 -0.256,-0.27733 -0.384,-0.704 -0.128,-0.46933 -0.29867,-0.96 -0.512,-1.472 -0.17067,-0.55467 -0.384,-1.04533 -0.64,-1.472 -0.256,-0.42667 -0.576,-0.64 -0.96,-0.64 h -8.256 v 16.32 h -8.704 V 93.776634 l 0.256,-0.064 c 0.21333,-0.04267 0.46933,-0.08533 0.768,-0.128 0.29867,-0.08533 0.61867,-0.149333 0.96,-0.192 0.384,-0.04267 0.72533,-0.064 1.024,-0.064 z m 5.888,19.519996 c 2.13333,0 4.096,0.0213 5.888,0.064 1.792,0 3.328,-0.17067 4.608,-0.512 1.28,-0.34133 2.28267,-0.96 3.008,-1.856 0.72533,-0.896 1.088,-2.26133 1.088,-4.096 0,-1.45067 -0.23467,-2.60267 -0.704,-3.456 -0.46933,-0.85333 -1.10933,-1.49333 -1.92,-1.92 -0.81067,-0.46933 -1.74933,-0.768 -2.816,-0.896 -1.06667,-0.128 -2.19733,-0.191996 -3.392,-0.191996 h -2.88 c -0.85333,0 -1.81333,0.064 -2.88,0.191996 z m 49.15196,-19.519996 h 9.536 l 16.448,42.879996 h -9.216 l -3.52,-9.216 h -16.96 l -3.712,9.216 h -8.96 z m -1.536,26.431996 h 12.544 l -6.4,-17.856 z m 34.30397,-26.303996 h 8.64 v 42.751996 h -8.64 z m 17.85596,0 h 8.64 l 20.096,27.327996 V 93.456634 h 8.512 v 42.751996 h -8.448 l -19.968,-27.136 v 27.136 h -8.832 z m 65.15199,-0.448 c 0.64,0 1.70667,0.02133 3.2,0.064 1.49333,0 3.072,0.192 4.736,0.576 1.70667,0.341333 3.34933,0.938667 4.928,1.792 1.57867,0.810667 2.77333,2.026667 3.584,3.648 0,0.04267 0.0213,0.08533 0.064,0.128 0,0.04267 0.0213,0.064 0.064,0.064 0.384,0.853326 0.64,1.706666 0.768,2.559996 0.128,0.85333 0.192,1.728 0.192,2.624 0,1.36533 -0.17067,2.56 -0.512,3.584 -0.34133,0.98133 -0.81067,1.83467 -1.408,2.56 -0.59733,0.68267 -1.30133,1.28 -2.112,1.792 -0.768,0.46933 -1.62133,0.896 -2.56,1.28 2.944,0.72533 5.03467,1.984 6.272,3.776 1.28,1.74933 1.92,4.096 1.92,7.04 0,2.176 -0.36267,4.01067 -1.088,5.504 -0.72533,1.49333 -1.728,2.70933 -3.008,3.648 -1.28,0.896 -2.77333,1.55733 -4.48,1.984 -1.70667,0.384 -3.54133,0.576 -5.504,0.576 h -20.224 V 93.776634 c 2.51733,-0.384 5.03467,-0.597333 7.552,-0.64 2.51733,-0.08533 5.056,-0.128 7.616,-0.128 z m 3.712,36.799996 c 1.92,0 3.47733,-0.49067 4.672,-1.472 1.23733,-0.98133 1.856,-2.496 1.856,-4.544 0,-1.49333 -0.27733,-2.66667 -0.832,-3.52 -0.55467,-0.896 -1.30133,-1.55733 -2.24,-1.984 -0.896,-0.42667 -1.94133,-0.68267 -3.136,-0.768 -1.19467,-0.128 -2.41067,-0.192 -3.648,-0.192 -1.10933,0 -2.24,0.0427 -3.392,0.128 -1.10933,0.0427 -2.24,0.064 -3.392,0.064 v 12.288 z m -0.64,-18.816 c 1.83467,0 3.264,-0.448 4.288,-1.344 1.024,-0.93867 1.536,-2.368 1.536,-4.288 0,-1.792 -0.55467,-3.15733 -1.664,-4.096 -1.10933,-0.93866 -2.53867,-1.407996 -4.288,-1.407996 h -6.784 c -0.0853,0 -0.27733,0.02133 -0.576,0.064 -0.256,0 -0.53333,0.02133 -0.832,0.064 -0.29867,0.04267 -0.576,0.08534 -0.832,0.127996 -0.21333,0 -0.32,0.0213 -0.32,0.064 v 10.816 z M 516.2171,93.648634 c 1.19467,-0.213333 2.28267,-0.362667 3.264,-0.448 1.024,-0.08533 2.15467,-0.128 3.392,-0.128 1.19467,0 2.304,0.04267 3.328,0.128 1.024,0.08533 2.13333,0.234667 3.328,0.448 0.0853,0.08533 0.192,0.128 0.32,0.128 2.56,0.853333 4.88533,2.069333 6.976,3.648 2.13333,1.578667 3.86133,3.882666 5.184,6.911996 0.72533,1.664 1.19467,3.43467 1.408,5.312 0.256,1.83467 0.384,3.648 0.384,5.44 0,1.83467 -0.14933,3.648 -0.448,5.44 -0.256,1.74933 -0.704,3.47733 -1.344,5.184 -0.29867,0.81067 -0.78933,1.64267 -1.472,2.496 -0.64,0.85333 -1.13067,1.64267 -1.472,2.368 -2.34667,2.34667 -4.82133,4.01067 -7.424,4.992 -2.56,0.93867 -5.48267,1.408 -8.768,1.408 -2.38933,0 -4.608,-0.23467 -6.656,-0.704 -2.048,-0.46933 -3.92533,-1.216 -5.632,-2.24 -1.664,-1.06667 -3.136,-2.41067 -4.416,-4.032 -1.23733,-1.664 -2.24,-3.69067 -3.008,-6.08 l -0.768,-2.56 c -0.21333,-0.85333 -0.32,-1.728 -0.32,-2.624 v -7.424 c 0,-0.0853 0.0427,-0.384 0.128,-0.896 0.0853,-0.55467 0.14933,-0.96 0.192,-1.216 0.55467,-2.85867 1.57867,-5.504 3.072,-7.936 1.49333,-2.431997 3.584,-4.373329 6.272,-5.823996 0.34133,-0.170667 0.74667,-0.341333 1.216,-0.512 0.512,-0.213333 0.98133,-0.384 1.408,-0.512 0.46933,-0.170667 0.87467,-0.32 1.216,-0.448 0.34133,-0.128 0.55467,-0.234667 0.64,-0.32 z m -4.928,21.439996 c 0,2.00533 0.128,3.904 0.384,5.696 0.29867,1.792 0.85333,3.37067 1.664,4.736 0.85333,1.32267 2.00533,2.38933 3.456,3.2 1.49333,0.768 3.43467,1.152 5.824,1.152 2.47467,0 4.48,-0.36267 6.016,-1.088 1.536,-0.72533 2.73067,-1.728 3.584,-3.008 0.85333,-1.32267 1.42933,-2.90133 1.728,-4.736 0.34133,-1.83467 0.512,-3.84 0.512,-6.016 0,-2.09067 -0.17067,-4.032 -0.512,-5.824 -0.29867,-1.83467 -0.87467,-3.41333 -1.728,-4.736 -0.85333,-1.32267 -2.02667,-2.368 -3.52,-3.136 -1.49333,-0.768 -3.43467,-1.152 -5.824,-1.152 -2.51733,0 -4.544,0.40533 -6.08,1.216 -1.49333,0.768 -2.64533,1.83467 -3.456,3.2 -0.81067,1.32267 -1.36533,2.90133 -1.664,4.736 -0.256,1.792 -0.384,3.712 -0.384,5.76 z m 42.81594,-21.439996 v -0.192 h 9.536 l 7.232,31.935996 9.088,-31.935996 h 8.832 l 8.576,31.935996 7.808,-31.935996 h 9.024 l -12.032,42.751996 h -9.6 l -8.448,-30.336 -8.64,30.336 h -9.92 z m 77.75995,42.559996 c -0.0853,-0.0427 -0.256,-0.10667 -0.512,-0.192 -0.256,-0.0853 -0.53333,-0.14933 -0.832,-0.192 l -0.896,-0.256 c -0.29867,-0.0853 -0.53333,-0.17067 -0.704,-0.256 -0.34133,-0.128 -0.85333,-0.34133 -1.536,-0.64 -0.64,-0.29867 -1.30133,-0.61867 -1.984,-0.96 -0.64,-0.34133 -1.216,-0.66133 -1.728,-0.96 -0.46933,-0.29867 -0.704,-0.53333 -0.704,-0.704 0,-0.21333 0.10667,-0.55467 0.32,-1.024 0.256,-0.46933 0.55467,-0.98133 0.896,-1.536 0.384,-0.59733 0.78933,-1.216 1.216,-1.856 0.42667,-0.68267 0.81067,-1.32267 1.152,-1.92 h 0.32 c 1.792,1.36533 3.712,2.432 5.76,3.2 2.048,0.72533 4.20267,1.088 6.464,1.088 0.85333,0 1.728,-0.064 2.624,-0.192 0.93867,-0.17067 1.792,-0.448 2.56,-0.832 0.768,-0.384 1.38667,-0.91733 1.856,-1.6 0.512,-0.68267 0.768,-1.55733 0.768,-2.624 0,-1.36533 -0.55467,-2.432 -1.664,-3.2 -1.10933,-0.81067 -2.51733,-1.51467 -4.224,-2.112 -1.664,-0.64 -3.47733,-1.25867 -5.44,-1.856 -1.92,-0.59733 -3.73333,-1.38667 -5.44,-2.368 -1.664,-1.024 -3.05067,-2.32533 -4.16,-3.904 -1.10933,-1.57867 -1.664,-3.648 -1.664,-6.208 0,-1.792 0.23467,-3.37067 0.704,-4.736 0.46933,-1.365331 1.38667,-2.666663 2.752,-3.903996 0.72533,-0.682667 1.55733,-1.237333 2.496,-1.664 0.98133,-0.469333 2.00533,-0.832 3.072,-1.088 1.06667,-0.256 2.13333,-0.426667 3.2,-0.512 1.06667,-0.08533 2.06933,-0.128 3.008,-0.128 0.256,0 0.68267,0.02133 1.28,0.064 0.59733,0 1.216,0.02133 1.856,0.064 0.68267,0 1.30133,0.04267 1.856,0.128 0.59733,0.04267 0.98133,0.106667 1.152,0.192 l 0.32,0.128 c 0.68267,0.256 1.472,0.533333 2.368,0.832 0.93867,0.256 1.81333,0.533333 2.624,0.832 0.85333,0.256 1.55733,0.512 2.112,0.768 0.59733,0.256 0.896,0.490667 0.896,0.704 v 0.256 l -2.816,6.399996 c 0,0.0853 -0.064,0.128 -0.192,0.128 -0.256,0.0427 -0.53333,-0.064 -0.832,-0.32 -0.29867,-0.29867 -0.55467,-0.49067 -0.768,-0.576 -1.49333,-0.72533 -2.96533,-1.32267 -4.416,-1.792 -1.45067,-0.46933 -3.02933,-0.704 -4.736,-0.704 -0.768,0 -1.57867,0.0427 -2.432,0.128 -0.81067,0.0853 -1.57867,0.27733 -2.304,0.576 -0.68267,0.29867 -1.25867,0.74667 -1.728,1.344 -0.46933,0.55467 -0.704,1.30133 -0.704,2.24 0,0.768 0.192,1.45067 0.576,2.048 0.42667,0.55467 0.93867,1.024 1.536,1.408 0.59733,0.384 1.23733,0.704 1.92,0.96 0.72533,0.256 1.408,0.46933 2.048,0.64 1.96267,0.72533 3.92533,1.408 5.888,2.048 1.96267,0.64 3.73333,1.472 5.312,2.496 1.57867,0.98133 2.85867,2.24 3.84,3.776 0.98133,1.536 1.472,3.584 1.472,6.144 0,2.432 -0.448,4.48 -1.344,6.144 -0.85333,1.664 -2.02667,3.008 -3.52,4.032 -1.45067,0.98133 -3.15733,1.68533 -5.12,2.112 -1.92,0.46933 -3.968,0.704 -6.144,0.704 -2.51733,0 -5.07733,-0.256 -7.68,-0.768 z"
         id="path21"
         sodipodi:nodetypes="cccccccccccccccccccccsscssccssccccccccccccccsscccccccsccsssscssscccccccccccccccccccccccccccccccsccccccsscccccssccscccsscscccscccsscsssscscscsccsscccccscccccssccccssccscccscscccssccscssscccsccccccccccccccccscsccccsccccccscscsccccsssccsssccccccccscccccsscccscsccscsscccsc" />
      <g
         id="g31">
        <path
           style="fill:#5ebfff"
           d="m 172.85739,173.45663 h 8.64 v 42.752 h -8.64 z m 17.85596,0 h 8.64 l 20.096,27.328 v -27.328 h 8.512 v 42.752 h -8.448 l -19.968,-27.136 v 27.136 h -8.832 z m 69.88798,-0.128 c 0.384,0 1.04533,-0.0213 1.984,-0.064 0.93867,-0.0427 1.92,-0.064 2.944,-0.064 1.06667,-0.0427 2.06933,-0.0853 3.008,-0.128 0.93867,-0.0427 1.6,-0.064 1.984,-0.064 2.47467,0 4.608,0.10667 6.4,0.32 1.83467,0.17067 3.56267,0.512 5.184,1.024 5.248,1.87733 7.872,5.73867 7.872,11.584 0,2.77333 -0.59733,5.16267 -1.792,7.168 -1.19467,2.00533 -2.98667,3.52 -5.376,4.544 0.17067,0.128 0.34133,0.29867 0.512,0.512 0.17067,0.17067 0.29867,0.34133 0.384,0.512 l 3.712,8.192 c 0.0427,0.0427 0.064,0.14933 0.064,0.32 0.0427,0.128 0.0853,0.21333 0.128,0.256 0.59733,1.408 1.19467,2.85867 1.792,4.352 0.64,1.45067 1.28,2.88 1.92,4.288 v 0.128 h -9.216 c -0.85333,-2.048 -1.70667,-4.05333 -2.56,-6.016 -0.81067,-1.96267 -1.64267,-3.968 -2.496,-6.016 -0.128,-0.0427 -0.256,-0.27733 -0.384,-0.704 -0.128,-0.46933 -0.29867,-0.96 -0.512,-1.472 -0.17067,-0.55467 -0.384,-1.04533 -0.64,-1.472 -0.256,-0.42667 -0.576,-0.64 -0.96,-0.64 h -8.256 v 16.32 h -8.704 v -42.432 l 0.256,-0.064 c 0.21333,-0.0427 0.46933,-0.0853 0.768,-0.128 0.29867,-0.0853 0.61867,-0.14933 0.96,-0.192 0.384,-0.0427 0.72533,-0.064 1.024,-0.064 z m 5.888,19.52 c 2.13333,0 4.096,0.0213 5.888,0.064 1.792,0 3.328,-0.17067 4.608,-0.512 1.28,-0.34133 2.28267,-0.96 3.008,-1.856 0.72533,-0.896 1.088,-2.26133 1.088,-4.096 0,-1.45067 -0.23467,-2.60267 -0.704,-3.456 -0.46933,-0.85333 -1.10933,-1.49333 -1.92,-1.92 -0.81067,-0.46933 -1.74933,-0.768 -2.816,-0.896 -1.06667,-0.128 -2.19733,-0.192 -3.392,-0.192 h -2.88 c -0.85333,0 -1.81333,0.064 -2.88,0.192 z m 49.15197,-19.52 h 9.536 l 16.448,42.88 h -9.216 l -3.52,-9.216 h -16.96 l -3.712,9.216 h -8.96 z m -1.536,26.432 h 12.544 l -6.4,-17.856 z m 34.30397,-26.304 h 8.64 v 42.752 h -8.64 z m 17.85596,0 h 8.64 l 20.096,27.328 v -27.328 h 8.512 v 42.752 h -8.448 l -19.968,-27.136 v 27.136 h -8.832 z m 72.89599,-7.616 h 7.936 l -25.472,52.224 h -7.68 z m 33.72792,7.168 c 0.64,0 1.70667,0.0213 3.2,0.064 1.49333,0 3.072,0.192 4.736,0.576 1.70667,0.34133 3.34933,0.93867 4.928,1.792 1.57867,0.81067 2.77333,2.02667 3.584,3.648 0,0.0427 0.0213,0.0853 0.064,0.128 0,0.0427 0.0213,0.064 0.064,0.064 0.384,0.85333 0.64,1.70667 0.768,2.56 0.128,0.85333 0.192,1.728 0.192,2.624 0,1.36533 -0.17067,2.56 -0.512,3.584 -0.34133,0.98133 -0.81067,1.83467 -1.408,2.56 -0.59733,0.68267 -1.30133,1.28 -2.112,1.792 -0.768,0.46933 -1.62133,0.896 -2.56,1.28 2.944,0.72533 5.03467,1.984 6.272,3.776 1.28,1.74933 1.92,4.096 1.92,7.04 0,2.176 -0.36267,4.01067 -1.088,5.504 -0.72533,1.49333 -1.728,2.70933 -3.008,3.648 -1.28,0.896 -2.77333,1.55733 -4.48,1.984 -1.70667,0.384 -3.54133,0.576 -5.504,0.576 h -20.224 v -42.432 c 2.51733,-0.384 5.03467,-0.59733 7.552,-0.64 2.51733,-0.0853 5.056,-0.128 7.616,-0.128 z m 3.712,36.8 c 1.92,0 3.47733,-0.49067 4.672,-1.472 1.23733,-0.98133 1.856,-2.496 1.856,-4.544 0,-1.49333 -0.27733,-2.66667 -0.832,-3.52 -0.55467,-0.896 -1.30133,-1.55733 -2.24,-1.984 -0.896,-0.42667 -1.94133,-0.68267 -3.136,-0.768 -1.19467,-0.128 -2.41067,-0.192 -3.648,-0.192 -1.10933,0 -2.24,0.0427 -3.392,0.128 -1.10933,0.0427 -2.24,0.064 -3.392,0.064 v 12.288 z m -0.64,-18.816 c 1.83467,0 3.264,-0.448 4.288,-1.344 1.024,-0.93867 1.536,-2.368 1.536,-4.288 0,-1.792 -0.55467,-3.15733 -1.664,-4.096 -1.10933,-0.93867 -2.53867,-1.408 -4.288,-1.408 h -6.784 c -0.0853,0 -0.27733,0.0213 -0.576,0.064 -0.256,0 -0.53333,0.0213 -0.832,0.064 -0.29867,0.0427 -0.576,0.0853 -0.832,0.128 -0.21333,0 -0.32,0.0213 -0.32,0.064 v 10.816 z m 40.25596,-17.344 c 1.19467,-0.21333 2.28267,-0.36267 3.264,-0.448 1.024,-0.0853 2.15467,-0.128 3.392,-0.128 1.19467,0 2.304,0.0427 3.328,0.128 1.024,0.0853 2.13333,0.23467 3.328,0.448 0.0853,0.0853 0.192,0.128 0.32,0.128 2.56,0.85333 4.88533,2.06933 6.976,3.648 2.13333,1.57867 3.86133,3.88267 5.184,6.912 0.72533,1.664 1.19467,3.43467 1.408,5.312 0.256,1.83467 0.384,3.648 0.384,5.44 0,1.83467 -0.14933,3.648 -0.448,5.44 -0.256,1.74933 -0.704,3.47733 -1.344,5.184 -0.29867,0.81067 -0.78933,1.64267 -1.472,2.496 -0.64,0.85333 -1.13067,1.64267 -1.472,2.368 -2.34667,2.34667 -4.82133,4.01067 -7.424,4.992 -2.56,0.93867 -5.48267,1.408 -8.768,1.408 -2.38933,0 -4.608,-0.23467 -6.656,-0.704 -2.048,-0.46933 -3.92533,-1.216 -5.632,-2.24 -1.664,-1.06667 -3.136,-2.41067 -4.416,-4.032 -1.23733,-1.664 -2.24,-3.69067 -3.008,-6.08 l -0.768,-2.56 c -0.21333,-0.85333 -0.32,-1.728 -0.32,-2.624 v -7.424 c 0,-0.0853 0.0427,-0.384 0.128,-0.896 0.0853,-0.55467 0.14933,-0.96 0.192,-1.216 0.55467,-2.85867 1.57867,-5.504 3.072,-7.936 1.49333,-2.432 3.584,-4.37333 6.272,-5.824 0.34133,-0.17067 0.74667,-0.34133 1.216,-0.512 0.512,-0.21333 0.98133,-0.384 1.408,-0.512 0.46933,-0.17067 0.87467,-0.32 1.216,-0.448 0.34133,-0.128 0.55467,-0.23467 0.64,-0.32 z m -4.928,21.44 c 0,2.00533 0.128,3.904 0.384,5.696 0.29867,1.792 0.85333,3.37067 1.664,4.736 0.85333,1.32267 2.00533,2.38933 3.456,3.2 1.49333,0.768 3.43467,1.152 5.824,1.152 2.47467,0 4.48,-0.36267 6.016,-1.088 1.536,-0.72533 2.73067,-1.728 3.584,-3.008 0.85333,-1.32267 1.42933,-2.90133 1.728,-4.736 0.34133,-1.83467 0.512,-3.84 0.512,-6.016 0,-2.09067 -0.17067,-4.032 -0.512,-5.824 -0.29867,-1.83467 -0.87467,-3.41333 -1.728,-4.736 -0.85333,-1.32267 -2.02667,-2.368 -3.52,-3.136 -1.49333,-0.768 -3.43467,-1.152 -5.824,-1.152 -2.51733,0 -4.544,0.40533 -6.08,1.216 -1.49333,0.768 -2.64533,1.83467 -3.456,3.2 -0.81067,1.32267 -1.36533,2.90133 -1.664,4.736 -0.256,1.792 -0.384,3.712 -0.384,5.76 z m 42.81594,-21.44 v -0.192 h 9.536 l 7.232,31.936 9.088,-31.936 h 8.832 l 8.576,31.936 7.808,-31.936 h 9.024 l -12.032,42.752 h -9.6 l -8.448,-30.336 -8.64,30.336 h -9.92 z m 77.75995,42.56 c -0.0853,-0.0427 -0.256,-0.10667 -0.512,-0.192 -0.256,-0.0853 -0.53333,-0.14933 -0.832,-0.192 l -0.896,-0.256 c -0.29867,-0.0853 -0.53333,-0.17067 -0.704,-0.256 -0.34133,-0.128 -0.85333,-0.34133 -1.536,-0.64 -0.64,-0.29867 -1.30133,-0.61867 -1.984,-0.96 -0.64,-0.34133 -1.216,-0.66133 -1.728,-0.96 -0.46933,-0.29867 -0.704,-0.53333 -0.704,-0.704 0,-0.21333 0.10667,-0.55467 0.32,-1.024 0.256,-0.46933 0.55467,-0.98133 0.896,-1.536 0.384,-0.59733 0.78933,-1.216 1.216,-1.856 0.42667,-0.68267 0.81067,-1.32267 1.152,-1.92 h 0.32 c 1.792,1.36533 3.712,2.432 5.76,3.2 2.048,0.72533 4.20267,1.088 6.464,1.088 0.85333,0 1.728,-0.064 2.624,-0.192 0.93867,-0.17067 1.792,-0.448 2.56,-0.832 0.768,-0.384 1.38667,-0.91733 1.856,-1.6 0.512,-0.68267 0.768,-1.55733 0.768,-2.624 0,-1.36533 -0.55467,-2.432 -1.664,-3.2 -1.10933,-0.81067 -2.51733,-1.51467 -4.224,-2.112 -1.664,-0.64 -3.47733,-1.25867 -5.44,-1.856 -1.92,-0.59733 -3.73333,-1.38667 -5.44,-2.368 -1.664,-1.024 -3.05067,-2.32533 -4.16,-3.904 -1.10933,-1.57867 -1.664,-3.648 -1.664,-6.208 0,-1.792 0.23467,-3.37067 0.704,-4.736 0.46933,-1.36533 1.38667,-2.66667 2.752,-3.904 0.72533,-0.68267 1.55733,-1.23733 2.496,-1.664 0.98133,-0.46933 2.00533,-0.832 3.072,-1.088 1.06667,-0.256 2.13333,-0.42667 3.2,-0.512 1.06667,-0.0853 2.06933,-0.128 3.008,-0.128 0.256,0 0.68267,0.0213 1.28,0.064 0.59733,0 1.216,0.0213 1.856,0.064 0.68267,0 1.30133,0.0427 1.856,0.128 0.59733,0.0427 0.98133,0.10667 1.152,0.192 l 0.32,0.128 c 0.68267,0.256 1.472,0.53333 2.368,0.832 0.93867,0.256 1.81333,0.53333 2.624,0.832 0.85333,0.256 1.55733,0.512 2.112,0.768 0.59733,0.256 0.896,0.49067 0.896,0.704 v 0.256 l -2.816,6.4 c 0,0.0853 -0.064,0.128 -0.192,0.128 -0.256,0.0427 -0.53333,-0.064 -0.832,-0.32 -0.29867,-0.29867 -0.55467,-0.49067 -0.768,-0.576 -1.49333,-0.72533 -2.96533,-1.32267 -4.416,-1.792 -1.45067,-0.46933 -3.02933,-0.704 -4.736,-0.704 -0.768,0 -1.57867,0.0427 -2.432,0.128 -0.81067,0.0853 -1.57867,0.27733 -2.304,0.576 -0.68267,0.29867 -1.25867,0.74667 -1.728,1.344 -0.46933,0.55467 -0.704,1.30133 -0.704,2.24 0,0.768 0.192,1.45067 0.576,2.048 0.42667,0.55467 0.93867,1.024 1.536,1.408 0.59733,0.384 1.23733,0.704 1.92,0.96 0.72533,0.256 1.408,0.46933 2.048,0.64 1.96267,0.72533 3.92533,1.408 5.888,2.048 1.96267,0.64 3.73333,1.472 5.312,2.496 1.57867,0.98133 2.85867,2.24 3.84,3.776 0.98133,1.536 1.472,3.584 1.472,6.144 0,2.432 -0.448,4.48 -1.344,6.144 -0.85333,1.664 -2.02667,3.008 -3.52,4.032 -1.45067,0.98133 -3.15733,1.68533 -5.12,2.112 -1.92,0.46933 -3.968,0.704 -6.144,0.704 -2.51733,0 -5.07733,-0.256 -7.68,-0.768 z"
           id="path22"
           sodipodi:nodetypes="ccccccccccccccccsscssccssccccccccccccccsscccccccsccsssscsssccccccccccccccccccccccccccccccccccccsccccccsscccccssccscccsscscccscccsscsssscscscsccsscccccscccccssccccssccscccscscccssccscssscccsccccccccccccccccscsccccsccccccscscsccccsssccsssccccccccscccccsscccscsccscsscccsc" />
      </g>
      <path
         style="fill:#fc5e00"
         d="m 172.85739,253.45663 h 8.64 v 42.752 h -8.64 z m 17.85596,0 h 8.64 l 20.096,27.328 v -27.328 h 8.512 v 42.752 h -8.448 l -19.968,-27.136 v 27.136 h -8.832 z m 69.88798,-0.128 q 0.576,0 1.984,-0.064 1.408,-0.064 2.944,-0.064 1.6,-0.064 3.008,-0.128 1.408,-0.064 1.984,-0.064 3.712,0 6.4,0.32 2.752,0.256 5.184,1.024 7.872,2.816 7.872,11.584 0,4.16 -1.792,7.168 -1.792,3.008 -5.376,4.544 0.256,0.192 0.512,0.512 0.256,0.256 0.384,0.512 l 3.712,8.192 q 0.064,0.064 0.064,0.32 0.064,0.192 0.128,0.256 0.896,2.112 1.792,4.352 0.96,2.176 1.92,4.288 v 0.128 h -9.216 q -1.28,-3.072 -2.56,-6.016 -1.216,-2.944 -2.496,-6.016 -0.192,-0.064 -0.384,-0.704 -0.192,-0.704 -0.512,-1.472 -0.256,-0.832 -0.64,-1.472 -0.384,-0.64 -0.96,-0.64 h -8.256 v 16.32 h -8.704 v -42.432 q 0,0 0.256,-0.064 0.32,-0.064 0.768,-0.128 0.448,-0.128 0.96,-0.192 0.576,-0.064 1.024,-0.064 z m 5.888,19.52 q 3.2,0 5.888,0.064 2.688,0 4.608,-0.512 1.92,-0.512 3.008,-1.856 1.088,-1.344 1.088,-4.096 0,-2.176 -0.704,-3.456 -0.704,-1.28 -1.92,-1.92 -1.216,-0.704 -2.816,-0.896 -1.6,-0.192 -3.392,-0.192 -1.6,0 -2.88,0 -1.28,0 -2.88,0.192 z m 49.15197,-19.52 h 9.536 l 16.448,42.88 h -9.216 l -3.52,-9.216 h -16.96 l -3.712,9.216 h -8.96 z m -1.536,26.432 h 12.544 l -6.4,-17.856 z m 34.30397,-26.304 h 8.64 v 42.752 h -8.64 z m 17.85596,0 h 8.64 l 20.096,27.328 v -27.328 h 8.512 v 42.752 h -8.448 l -19.968,-27.136 v 27.136 h -8.832 z m 65.15199,-0.448 q 0.96,0 3.2,0.064 2.24,0 4.736,0.576 2.56,0.512 4.928,1.792 2.368,1.216 3.584,3.648 0,0.064 0.064,0.128 0,0.064 0.064,0.064 0.576,1.28 0.768,2.56 0.192,1.28 0.192,2.624 0,2.048 -0.512,3.584 -0.512,1.472 -1.408,2.56 -0.896,1.024 -2.112,1.792 -1.152,0.704 -2.56,1.28 4.416,1.088 6.272,3.776 1.92,2.624 1.92,7.04 0,3.264 -1.088,5.504 -1.088,2.24 -3.008,3.648 -1.92,1.344 -4.48,1.984 -2.56,0.576 -5.504,0.576 h -20.224 v -42.432 q 3.776,-0.576 7.552,-0.64 3.776,-0.128 7.616,-0.128 z m 3.712,36.8 q 2.88,0 4.672,-1.472 1.856,-1.472 1.856,-4.544 0,-2.24 -0.832,-3.52 -0.832,-1.344 -2.24,-1.984 -1.344,-0.64 -3.136,-0.768 -1.792,-0.192 -3.648,-0.192 -1.664,0 -3.392,0.128 -1.664,0.064 -3.392,0.064 v 12.288 z m -0.64,-18.816 q 2.752,0 4.288,-1.344 1.536,-1.408 1.536,-4.288 0,-2.688 -1.664,-4.096 -1.664,-1.408 -4.288,-1.408 h -6.784 q -0.128,0 -0.576,0.064 -0.384,0 -0.832,0.064 -0.448,0.064 -0.832,0.128 -0.32,0 -0.32,0.064 v 10.816 z m 40.25596,-17.344 q 1.792,-0.32 3.264,-0.448 1.536,-0.128 3.392,-0.128 1.792,0 3.328,0.128 1.536,0.128 3.328,0.448 0.128,0.128 0.32,0.128 3.84,1.28 6.976,3.648 3.2,2.368 5.184,6.912 1.088,2.496 1.408,5.312 0.384,2.752 0.384,5.44 0,2.752 -0.448,5.44 -0.384,2.624 -1.344,5.184 -0.448,1.216 -1.472,2.496 -0.96,1.28 -1.472,2.368 -3.52,3.52 -7.424,4.992 -3.84,1.408 -8.768,1.408 -3.584,0 -6.656,-0.704 -3.072,-0.704 -5.632,-2.24 -2.496,-1.6 -4.416,-4.032 -1.856,-2.496 -3.008,-6.08 -0.384,-1.28 -0.768,-2.56 -0.32,-1.28 -0.32,-2.624 v -7.424 q 0,-0.128 0.128,-0.896 0.128,-0.832 0.192,-1.216 0.832,-4.288 3.072,-7.936 2.24,-3.648 6.272,-5.824 0.512,-0.256 1.216,-0.512 0.768,-0.32 1.408,-0.512 0.704,-0.256 1.216,-0.448 0.512,-0.192 0.64,-0.32 z m -4.928,21.44 q 0,3.008 0.384,5.696 0.448,2.688 1.664,4.736 1.28,1.984 3.456,3.2 2.24,1.152 5.824,1.152 3.712,0 6.016,-1.088 2.304,-1.088 3.584,-3.008 1.28,-1.984 1.728,-4.736 0.512,-2.752 0.512,-6.016 0,-3.136 -0.512,-5.824 -0.448,-2.752 -1.728,-4.736 -1.28,-1.984 -3.52,-3.136 -2.24,-1.152 -5.824,-1.152 -3.776,0 -6.08,1.216 -2.24,1.152 -3.456,3.2 -1.216,1.984 -1.664,4.736 -0.384,2.688 -0.384,5.76 z m 42.81594,-21.44 v -0.192 h 9.536 l 7.232,31.936 9.088,-31.936 h 8.832 l 8.576,31.936 7.808,-31.936 h 9.024 l -12.032,42.752 h -9.6 l -8.448,-30.336 -8.64,30.336 h -9.92 z m 94.14394,-7.808 h 7.936 l -25.472,52.224 h -7.68 z m 25.08793,50.368 q -0.128,-0.064 -0.512,-0.192 -0.384,-0.128 -0.832,-0.192 -0.448,-0.128 -0.896,-0.256 -0.448,-0.128 -0.704,-0.256 -0.512,-0.192 -1.536,-0.64 -0.96,-0.448 -1.984,-0.96 -0.96,-0.512 -1.728,-0.96 -0.704,-0.448 -0.704,-0.704 0,-0.32 0.32,-1.024 0.384,-0.704 0.896,-1.536 0.576,-0.896 1.216,-1.856 0.64,-1.024 1.152,-1.92 h 0.32 q 2.688,2.048 5.76,3.2 3.072,1.088 6.464,1.088 1.28,0 2.624,-0.192 1.408,-0.256 2.56,-0.832 1.152,-0.576 1.856,-1.6 0.768,-1.024 0.768,-2.624 0,-2.048 -1.664,-3.2 -1.664,-1.216 -4.224,-2.112 -2.496,-0.96 -5.44,-1.856 -2.88,-0.896 -5.44,-2.368 -2.496,-1.536 -4.16,-3.904 -1.664,-2.368 -1.664,-6.208 0,-2.688 0.704,-4.736 0.704,-2.048 2.752,-3.904 1.088,-1.024 2.496,-1.664 1.472,-0.704 3.072,-1.088 1.6,-0.384 3.2,-0.512 1.6,-0.128 3.008,-0.128 0.384,0 1.28,0.064 0.896,0 1.856,0.064 1.024,0 1.856,0.128 0.896,0.064 1.152,0.192 l 0.32,0.128 q 1.024,0.384 2.368,0.832 1.408,0.384 2.624,0.832 1.28,0.384 2.112,0.768 0.896,0.384 0.896,0.704 v 0.256 l -2.816,6.4 q 0,0.128 -0.192,0.128 -0.384,0.064 -0.832,-0.32 -0.448,-0.448 -0.768,-0.576 -2.24,-1.088 -4.416,-1.792 -2.176,-0.704 -4.736,-0.704 -1.152,0 -2.432,0.128 -1.216,0.128 -2.304,0.576 -1.024,0.448 -1.728,1.344 -0.704,0.832 -0.704,2.24 0,1.152 0.576,2.048 0.64,0.832 1.536,1.408 0.896,0.576 1.92,0.96 1.088,0.384 2.048,0.64 2.944,1.088 5.888,2.048 2.944,0.96 5.312,2.496 2.368,1.472 3.84,3.776 1.472,2.304 1.472,6.144 0,3.648 -1.344,6.144 -1.28,2.496 -3.52,4.032 -2.176,1.472 -5.12,2.112 -2.88,0.704 -6.144,0.704 -3.776,0 -7.68,-0.768 z"
         id="path23" />
      <path
         style="fill:#63ff00"
         d="m 172.85739,333.45663 h 8.64 v 42.752 h -8.64 z m 17.85596,0 h 8.64 l 20.096,27.328 v -27.328 h 8.512 v 42.752 h -8.448 l -19.968,-27.136 v 27.136 h -8.832 z m 69.88798,-0.128 q 0.576,0 1.984,-0.064 1.408,-0.064 2.944,-0.064 1.6,-0.064 3.008,-0.128 1.408,-0.064 1.984,-0.064 3.712,0 6.4,0.32 2.752,0.256 5.184,1.024 7.872,2.816 7.872,11.584 0,4.16 -1.792,7.168 -1.792,3.008 -5.376,4.544 0.256,0.192 0.512,0.512 0.256,0.256 0.384,0.512 l 3.712,8.192 q 0.064,0.064 0.064,0.32 0.064,0.192 0.128,0.256 0.896,2.112 1.792,4.352 0.96,2.176 1.92,4.288 v 0.128 h -9.216 q -1.28,-3.072 -2.56,-6.016 -1.216,-2.944 -2.496,-6.016 -0.192,-0.064 -0.384,-0.704 -0.192,-0.704 -0.512,-1.472 -0.256,-0.832 -0.64,-1.472 -0.384,-0.64 -0.96,-0.64 h -8.256 v 16.32 h -8.704 v -42.432 q 0,0 0.256,-0.064 0.32,-0.064 0.768,-0.128 0.448,-0.128 0.96,-0.192 0.576,-0.064 1.024,-0.064 z m 5.888,19.52 q 3.2,0 5.888,0.064 2.688,0 4.608,-0.512 1.92,-0.512 3.008,-1.856 1.088,-1.344 1.088,-4.096 0,-2.176 -0.704,-3.456 -0.704,-1.28 -1.92,-1.92 -1.216,-0.704 -2.816,-0.896 -1.6,-0.192 -3.392,-0.192 -1.6,0 -2.88,0 -1.28,0 -2.88,0.192 z m 49.15197,-19.52 h 9.536 l 16.448,42.88 h -9.216 l -3.52,-9.216 h -16.96 l -3.712,9.216 h -8.96 z m -1.536,26.432 h 12.544 l -6.4,-17.856 z m 34.30397,-26.304 h 8.64 v 42.752 h -8.64 z m 17.85596,0 h 8.64 l 20.096,27.328 v -27.328 h 8.512 v 42.752 h -8.448 l -19.968,-27.136 v 27.136 h -8.832 z m 65.15199,-0.448 q 0.96,0 3.2,0.064 2.24,0 4.736,0.576 2.56,0.512 4.928,1.792 2.368,1.216 3.584,3.648 0,0.064 0.064,0.128 0,0.064 0.064,0.064 0.576,1.28 0.768,2.56 0.192,1.28 0.192,2.624 0,2.048 -0.512,3.584 -0.512,1.472 -1.408,2.56 -0.896,1.024 -2.112,1.792 -1.152,0.704 -2.56,1.28 4.416,1.088 6.272,3.776 1.92,2.624 1.92,7.04 0,3.264 -1.088,5.504 -1.088,2.24 -3.008,3.648 -1.92,1.344 -4.48,1.984 -2.56,0.576 -5.504,0.576 h -20.224 v -42.432 q 3.776,-0.576 7.552,-0.64 3.776,-0.128 7.616,-0.128 z m 3.712,36.8 q 2.88,0 4.672,-1.472 1.856,-1.472 1.856,-4.544 0,-2.24 -0.832,-3.52 -0.832,-1.344 -2.24,-1.984 -1.344,-0.64 -3.136,-0.768 -1.792,-0.192 -3.648,-0.192 -1.664,0 -3.392,0.128 -1.664,0.064 -3.392,0.064 v 12.288 z m -0.64,-18.816 q 2.752,0 4.288,-1.344 1.536,-1.408 1.536,-4.288 0,-2.688 -1.664,-4.096 -1.664,-1.408 -4.288,-1.408 h -6.784 q -0.128,0 -0.576,0.064 -0.384,0 -0.832,0.064 -0.448,0.064 -0.832,0.128 -0.32,0 -0.32,0.064 v 10.816 z m 40.25596,-17.344 q 1.792,-0.32 3.264,-0.448 1.536,-0.128 3.392,-0.128 1.792,0 3.328,0.128 1.536,0.128 3.328,0.448 0.128,0.128 0.32,0.128 3.84,1.28 6.976,3.648 3.2,2.368 5.184,6.912 1.088,2.496 1.408,5.312 0.384,2.752 0.384,5.44 0,2.752 -0.448,5.44 -0.384,2.624 -1.344,5.184 -0.448,1.216 -1.472,2.496 -0.96,1.28 -1.472,2.368 -3.52,3.52 -7.424,4.992 -3.84,1.408 -8.768,1.408 -3.584,0 -6.656,-0.704 -3.072,-0.704 -5.632,-2.24 -2.496,-1.6 -4.416,-4.032 -1.856,-2.496 -3.008,-6.08 -0.384,-1.28 -0.768,-2.56 -0.32,-1.28 -0.32,-2.624 v -7.424 q 0,-0.128 0.128,-0.896 0.128,-0.832 0.192,-1.216 0.832,-4.288 3.072,-7.936 2.24,-3.648 6.272,-5.824 0.512,-0.256 1.216,-0.512 0.768,-0.32 1.408,-0.512 0.704,-0.256 1.216,-0.448 0.512,-0.192 0.64,-0.32 z m -4.928,21.44 q 0,3.008 0.384,5.696 0.448,2.688 1.664,4.736 1.28,1.984 3.456,3.2 2.24,1.152 5.824,1.152 3.712,0 6.016,-1.088 2.304,-1.088 3.584,-3.008 1.28,-1.984 1.728,-4.736 0.512,-2.752 0.512,-6.016 0,-3.136 -0.512,-5.824 -0.448,-2.752 -1.728,-4.736 -1.28,-1.984 -3.52,-3.136 -2.24,-1.152 -5.824,-1.152 -3.776,0 -6.08,1.216 -2.24,1.152 -3.456,3.2 -1.216,1.984 -1.664,4.736 -0.384,2.688 -0.384,5.76 z m 42.81594,-21.44 v -0.192 h 9.536 l 7.232,31.936 9.088,-31.936 h 8.832 l 8.576,31.936 7.808,-31.936 h 9.024 l -12.032,42.752 h -9.6 l -8.448,-30.336 -8.64,30.336 h -9.92 z m 77.75994,42.56 q -0.128,-0.064 -0.512,-0.192 -0.384,-0.128 -0.832,-0.192 -0.448,-0.128 -0.896,-0.256 -0.448,-0.128 -0.704,-0.256 -0.512,-0.192 -1.536,-0.64 -0.96,-0.448 -1.984,-0.96 -0.96,-0.512 -1.728,-0.96 -0.704,-0.448 -0.704,-0.704 0,-0.32 0.32,-1.024 0.384,-0.704 0.896,-1.536 0.576,-0.896 1.216,-1.856 0.64,-1.024 1.152,-1.92 h 0.32 q 2.688,2.048 5.76,3.2 3.072,1.088 6.464,1.088 1.28,0 2.624,-0.192 1.408,-0.256 2.56,-0.832 1.152,-0.576 1.856,-1.6 0.768,-1.024 0.768,-2.624 0,-2.048 -1.664,-3.2 -1.664,-1.216 -4.224,-2.112 -2.496,-0.96 -5.44,-1.856 -2.88,-0.896 -5.44,-2.368 -2.496,-1.536 -4.16,-3.904 -1.664,-2.368 -1.664,-6.208 0,-2.688 0.704,-4.736 0.704,-2.048 2.752,-3.904 1.088,-1.024 2.496,-1.664 1.472,-0.704 3.072,-1.088 1.6,-0.384 3.2,-0.512 1.6,-0.128 3.008,-0.128 0.384,0 1.28,0.064 0.896,0 1.856,0.064 1.024,0 1.856,0.128 0.896,0.064 1.152,0.192 l 0.32,0.128 q 1.024,0.384 2.368,0.832 1.408,0.384 2.624,0.832 1.28,0.384 2.112,0.768 0.896,0.384 0.896,0.704 v 0.256 l -2.816,6.4 q 0,0.128 -0.192,0.128 -0.384,0.064 -0.832,-0.32 -0.448,-0.448 -0.768,-0.576 -2.24,-1.088 -4.416,-1.792 -2.176,-0.704 -4.736,-0.704 -1.152,0 -2.432,0.128 -1.216,0.128 -2.304,0.576 -1.024,0.448 -1.728,1.344 -0.704,0.832 -0.704,2.24 0,1.152 0.576,2.048 0.64,0.832 1.536,1.408 0.896,0.576 1.92,0.96 1.088,0.384 2.048,0.64 2.944,1.088 5.888,2.048 2.944,0.96 5.312,2.496 2.368,1.472 3.84,3.776 1.472,2.304 1.472,6.144 0,3.648 -1.344,6.144 -1.28,2.496 -3.52,4.032 -2.176,1.472 -5.12,2.112 -2.88,0.704 -6.144,0.704 -3.776,0 -7.68,-0.768 z m 57.91989,-50.368 h 7.936 l -25.472,52.224 h -7.68 z"
         id="path25" />
      <path
         style="fill:#ebbf19"
         d="m 179.35336,413.45663 h 8.64 v 42.752 h -8.64 z m 17.85596,0 h 8.64 l 20.096,27.328 v -27.328 h 8.512 v 42.752 h -8.448 l -19.968,-27.136 v 27.136 h -8.832 z m 69.88799,-0.128 q 0.576,0 1.984,-0.064 1.408,-0.064 2.944,-0.064 1.6,-0.064 3.008,-0.128 1.408,-0.064 1.984,-0.064 3.712,0 6.4,0.32 2.752,0.256 5.184,1.024 7.872,2.816 7.872,11.584 0,4.16 -1.792,7.168 -1.792,3.008 -5.376,4.544 0.256,0.192 0.512,0.512 0.256,0.256 0.384,0.512 l 3.712,8.192 q 0.064,0.064 0.064,0.32 0.064,0.192 0.128,0.256 0.896,2.112 1.792,4.352 0.96,2.176 1.92,4.288 v 0.128 h -9.216 q -1.28,-3.072 -2.56,-6.016 -1.216,-2.944 -2.496,-6.016 -0.192,-0.064 -0.384,-0.704 -0.192,-0.704 -0.512,-1.472 -0.256,-0.832 -0.64,-1.472 -0.384,-0.64 -0.96,-0.64 h -8.256 v 16.32 h -8.704 v -42.432 q 0,0 0.256,-0.064 0.32,-0.064 0.768,-0.128 0.448,-0.128 0.96,-0.192 0.576,-0.064 1.024,-0.064 z m 5.888,19.52 q 3.2,0 5.888,0.064 2.688,0 4.608,-0.512 1.92,-0.512 3.008,-1.856 1.088,-1.344 1.088,-4.096 0,-2.176 -0.704,-3.456 -0.704,-1.28 -1.92,-1.92 -1.216,-0.704 -2.816,-0.896 -1.6,-0.192 -3.392,-0.192 -1.6,0 -2.88,0 -1.28,0 -2.88,0.192 z m 49.15196,-19.52 h 9.536 l 16.448,42.88 h -9.216 l -3.52,-9.216 h -16.96 l -3.712,9.216 h -8.96 z m -1.536,26.432 h 12.544 l -6.4,-17.856 z m 34.30397,-26.304 h 8.64 v 42.752 h -8.64 z m 17.85596,0 h 8.64 l 20.096,27.328 v -27.328 h 8.512 v 42.752 h -8.448 l -19.968,-27.136 v 27.136 h -8.832 z m 71.99999,54.912 h -28.48 v -8.448 h 28.48 z m 21.63198,-55.36 q 0.96,0 3.2,0.064 2.24,0 4.736,0.576 2.56,0.512 4.928,1.792 2.368,1.216 3.584,3.648 0,0.064 0.064,0.128 0,0.064 0.064,0.064 0.576,1.28 0.768,2.56 0.192,1.28 0.192,2.624 0,2.048 -0.512,3.584 -0.512,1.472 -1.408,2.56 -0.896,1.024 -2.112,1.792 -1.152,0.704 -2.56,1.28 4.416,1.088 6.272,3.776 1.92,2.624 1.92,7.04 0,3.264 -1.088,5.504 -1.088,2.24 -3.008,3.648 -1.92,1.344 -4.48,1.984 -2.56,0.576 -5.504,0.576 h -20.224 v -42.432 q 3.776,-0.576 7.552,-0.64 3.776,-0.128 7.616,-0.128 z m 3.712,36.8 q 2.88,0 4.672,-1.472 1.856,-1.472 1.856,-4.544 0,-2.24 -0.832,-3.52 -0.832,-1.344 -2.24,-1.984 -1.344,-0.64 -3.136,-0.768 -1.792,-0.192 -3.648,-0.192 -1.664,0 -3.392,0.128 -1.664,0.064 -3.392,0.064 v 12.288 z m -0.64,-18.816 q 2.752,0 4.288,-1.344 1.536,-1.408 1.536,-4.288 0,-2.688 -1.664,-4.096 -1.664,-1.408 -4.288,-1.408 h -6.784 q -0.128,0 -0.576,0.064 -0.384,0 -0.832,0.064 -0.448,0.064 -0.832,0.128 -0.32,0 -0.32,0.064 v 10.816 z m 40.25596,-17.344 q 1.792,-0.32 3.264,-0.448 1.536,-0.128 3.392,-0.128 1.792,0 3.328,0.128 1.536,0.128 3.328,0.448 0.128,0.128 0.32,0.128 3.84,1.28 6.976,3.648 3.2,2.368 5.184,6.912 1.088,2.496 1.408,5.312 0.384,2.752 0.384,5.44 0,2.752 -0.448,5.44 -0.384,2.624 -1.344,5.184 -0.448,1.216 -1.472,2.496 -0.96,1.28 -1.472,2.368 -3.52,3.52 -7.424,4.992 -3.84,1.408 -8.768,1.408 -3.584,0 -6.656,-0.704 -3.072,-0.704 -5.632,-2.24 -2.496,-1.6 -4.416,-4.032 -1.856,-2.496 -3.008,-6.08 -0.384,-1.28 -0.768,-2.56 -0.32,-1.28 -0.32,-2.624 v -7.424 q 0,-0.128 0.128,-0.896 0.128,-0.832 0.192,-1.216 0.832,-4.288 3.072,-7.936 2.24,-3.648 6.272,-5.824 0.512,-0.256 1.216,-0.512 0.768,-0.32 1.408,-0.512 0.704,-0.256 1.216,-0.448 0.512,-0.192 0.64,-0.32 z m -4.928,21.44 q 0,3.008 0.384,5.696 0.448,2.688 1.664,4.736 1.28,1.984 3.456,3.2 2.24,1.152 5.824,1.152 3.712,0 6.016,-1.088 2.304,-1.088 3.584,-3.008 1.28,-1.984 1.728,-4.736 0.512,-2.752 0.512,-6.016 0,-3.136 -0.512,-5.824 -0.448,-2.752 -1.728,-4.736 -1.28,-1.984 -3.52,-3.136 -2.24,-1.152 -5.824,-1.152 -3.776,0 -6.08,1.216 -2.24,1.152 -3.456,3.2 -1.216,1.984 -1.664,4.736 -0.384,2.688 -0.384,5.76 z m 42.81594,-21.44 v -0.192 h 9.536 l 7.232,31.936 9.088,-31.936 h 8.832 l 8.576,31.936 7.808,-31.936 h 9.024 l -12.032,42.752 h -9.6 l -8.448,-30.336 -8.64,30.336 h -9.92 z m 77.75994,42.56 q -0.128,-0.064 -0.512,-0.192 -0.384,-0.128 -0.832,-0.192 -0.448,-0.128 -0.896,-0.256 -0.448,-0.128 -0.704,-0.256 -0.512,-0.192 -1.536,-0.64 -0.96,-0.448 -1.984,-0.96 -0.96,-0.512 -1.728,-0.96 -0.704,-0.448 -0.704,-0.704 0,-0.32 0.32,-1.024 0.384,-0.704 0.896,-1.536 0.576,-0.896 1.216,-1.856 0.64,-1.024 1.152,-1.92 h 0.32 q 2.688,2.048 5.76,3.2 3.072,1.088 6.464,1.088 1.28,0 2.624,-0.192 1.408,-0.256 2.56,-0.832 1.152,-0.576 1.856,-1.6 0.768,-1.024 0.768,-2.624 0,-2.048 -1.664,-3.2 -1.664,-1.216 -4.224,-2.112 -2.496,-0.96 -5.44,-1.856 -2.88,-0.896 -5.44,-2.368 -2.496,-1.536 -4.16,-3.904 -1.664,-2.368 -1.664,-6.208 0,-2.688 0.704,-4.736 0.704,-2.048 2.752,-3.904 1.088,-1.024 2.496,-1.664 1.472,-0.704 3.072,-1.088 1.6,-0.384 3.2,-0.512 1.6,-0.128 3.008,-0.128 0.384,0 1.28,0.064 0.896,0 1.856,0.064 1.024,0 1.856,0.128 0.896,0.064 1.152,0.192 l 0.32,0.128 q 1.024,0.384 2.368,0.832 1.408,0.384 2.624,0.832 1.28,0.384 2.112,0.768 0.896,0.384 0.896,0.704 v 0.256 l -2.816,6.4 q 0,0.128 -0.192,0.128 -0.384,0.064 -0.832,-0.32 -0.448,-0.448 -0.768,-0.576 -2.24,-1.088 -4.416,-1.792 -2.176,-0.704 -4.736,-0.704 -1.152,0 -2.432,0.128 -1.216,0.128 -2.304,0.576 -1.024,0.448 -1.728,1.344 -0.704,0.832 -0.704,2.24 0,1.152 0.576,2.048 0.64,0.832 1.536,1.408 0.896,0.576 1.92,0.96 1.088,0.384 2.048,0.64 2.944,1.088 5.888,2.048 2.944,0.96 5.312,2.496 2.368,1.472 3.84,3.776 1.472,2.304 1.472,6.144 0,3.648 -1.344,6.144 -1.28,2.496 -3.52,4.032 -2.176,1.472 -5.12,2.112 -2.88,0.704 -6.144,0.704 -3.776,0 -7.68,-0.768 z"
         id="path27" />
      <path
         style="fill:#ff1200"
         d="m 188.08937,493.32863 q 0.576,0 1.984,-0.064 1.408,-0.064 2.944,-0.064 1.6,-0.064 3.008,-0.128 1.408,-0.064 1.984,-0.064 3.712,0 6.4,0.32 2.752,0.256 5.184,1.024 7.872,2.816 7.872,11.584 0,4.16 -1.792,7.168 -1.792,3.008 -5.376,4.544 0.256,0.192 0.512,0.512 0.256,0.256 0.384,0.512 l 3.712,8.192 q 0.064,0.064 0.064,0.32 0.064,0.192 0.128,0.256 0.896,2.112 1.792,4.352 0.96,2.176 1.92,4.288 v 0.128 h -9.216 q -1.28,-3.072 -2.56,-6.016 -1.216,-2.944 -2.496,-6.016 -0.192,-0.064 -0.384,-0.704 -0.192,-0.704 -0.512,-1.472 -0.256,-0.832 -0.64,-1.472 -0.384,-0.64 -0.96,-0.64 h -8.256 v 16.32 h -8.704 v -42.432 q 0,0 0.256,-0.064 0.32,-0.064 0.768,-0.128 0.448,-0.128 0.96,-0.192 0.576,-0.064 1.024,-0.064 z m 5.888,19.52 q 3.2,0 5.888,0.064 2.688,0 4.608,-0.512 1.92,-0.512 3.008,-1.856 1.088,-1.344 1.088,-4.096 0,-2.176 -0.704,-3.456 -0.704,-1.28 -1.92,-1.92 -1.216,-0.704 -2.816,-0.896 -1.6,-0.192 -3.392,-0.192 -1.6,0 -2.88,0 -1.28,0 -2.88,0.192 z m 49.15196,-19.52 h 9.536 l 16.448,42.88 h -9.216 l -3.52,-9.216 h -16.96 l -3.712,9.216 h -8.96 z m -1.536,26.432 h 12.544 l -6.4,-17.856 z m 68.54397,-26.624 q 0.32,0 0.896,0 0.576,0 1.152,0.064 0.576,0 0.96,0 0.448,0 0.512,0 2.944,0.064 5.76,1.024 2.816,0.896 5.184,2.56 2.432,1.6 4.224,3.968 1.792,2.368 2.624,5.312 0.576,2.24 0.768,4.352 0.256,2.112 0.256,4.352 0,4.544 -1.216,8.64 -1.152,4.096 -4.288,7.488 -0.128,0.064 -0.384,0.256 -0.256,0.192 -0.32,0.32 -1.152,1.152 -2.816,2.048 -1.6,0.832 -3.264,1.472 -1.6,0.576 -3.136,0.896 -1.472,0.32 -2.368,0.32 h -18.432 v -42.304 q 0,-0.192 1.664,-0.32 1.728,-0.128 3.968,-0.192 2.304,-0.128 4.608,-0.192 2.368,-0.064 3.648,-0.064 z m -5.12,36.096 h 7.424 q 2.368,0 4.48,-1.024 2.176,-1.088 3.712,-2.816 0,-0.064 0,-0.192 0.064,-0.192 0.128,-0.256 1.6,-2.624 2.048,-4.928 0.448,-2.368 0.448,-5.248 0,-4.48 -1.024,-7.296 -1.024,-2.88 -2.752,-4.544 -1.664,-1.664 -3.904,-2.304 -2.24,-0.64 -4.736,-0.64 -0.128,0 -1.024,0 -0.832,0 -1.856,0 -0.96,0 -1.856,0.064 -0.896,0.064 -0.96,0.128 l -0.128,0.128 z m 52.54395,-35.776 h 8.64 v 42.752 h -8.64 z m 31.35995,0.192 q 1.792,-0.32 3.264,-0.448 1.536,-0.128 3.392,-0.128 1.792,0 3.328,0.128 1.536,0.128 3.328,0.448 0.128,0.128 0.32,0.128 3.84,1.28 6.976,3.648 3.2,2.368 5.184,6.912 1.088,2.496 1.408,5.312 0.384,2.752 0.384,5.44 0,2.752 -0.448,5.44 -0.384,2.624 -1.344,5.184 -0.448,1.216 -1.472,2.496 -0.96,1.28 -1.472,2.368 -3.52,3.52 -7.424,4.992 -3.84,1.408 -8.768,1.408 -3.584,0 -6.656,-0.704 -3.072,-0.704 -5.632,-2.24 -2.496,-1.6 -4.416,-4.032 -1.856,-2.496 -3.008,-6.08 -0.384,-1.28 -0.768,-2.56 -0.32,-1.28 -0.32,-2.624 v -7.424 q 0,-0.128 0.128,-0.896 0.128,-0.832 0.192,-1.216 0.832,-4.288 3.072,-7.936 2.24,-3.648 6.272,-5.824 0.512,-0.256 1.216,-0.512 0.768,-0.32 1.408,-0.512 0.704,-0.256 1.216,-0.448 0.512,-0.192 0.64,-0.32 z m -4.928,21.44 q 0,3.008 0.384,5.696 0.448,2.688 1.664,4.736 1.28,1.984 3.456,3.2 2.24,1.152 5.824,1.152 3.712,0 6.016,-1.088 2.304,-1.088 3.584,-3.008 1.28,-1.984 1.728,-4.736 0.512,-2.752 0.512,-6.016 0,-3.136 -0.512,-5.824 -0.448,-2.752 -1.728,-4.736 -1.28,-1.984 -3.52,-3.136 -2.24,-1.152 -5.824,-1.152 -3.776,0 -6.08,1.216 -2.24,1.152 -3.456,3.2 -1.216,1.984 -1.664,4.736 -0.384,2.688 -0.384,5.76 z m 44.22395,-21.632 h 8.704 v 16.064 h 17.216 v -16.064 h 8.64 v 42.752 h -8.64 v -18.368 h -17.216 v 18.368 h -8.704 z m 75.45597,0 v 7.488 h -19.904 v 9.536 h 18.112 v 7.424 h -18.112 v 11.136 h 20.48 v 7.168 h -29.248 v -42.752 z m 24.95988,-0.128 h 9.536 l 16.448,42.88 h -9.216 l -3.52,-9.216 h -16.96 l -3.712,9.216 h -8.96 z m -1.536,26.432 h 12.544 l -6.4,-17.856 z m 76.73597,28.608 h -28.48 v -8.448 h 28.48 z m 20.28798,-55.232 q 0.32,0 0.896,0 0.576,0 1.152,0.064 0.576,0 0.96,0 0.448,0 0.512,0 2.944,0.064 5.76,1.024 2.816,0.896 5.184,2.56 2.432,1.6 4.224,3.968 1.792,2.368 2.624,5.312 0.576,2.24 0.768,4.352 0.256,2.112 0.256,4.352 0,4.544 -1.216,8.64 -1.152,4.096 -4.288,7.488 -0.128,0.064 -0.384,0.256 -0.256,0.192 -0.32,0.32 -1.152,1.152 -2.816,2.048 -1.6,0.832 -3.264,1.472 -1.6,0.576 -3.136,0.896 -1.472,0.32 -2.368,0.32 h -18.432 v -42.304 q 0,-0.192 1.664,-0.32 1.728,-0.128 3.968,-0.192 2.304,-0.128 4.608,-0.192 2.368,-0.064 3.648,-0.064 z m -5.12,36.096 h 7.424 q 2.368,0 4.48,-1.024 2.176,-1.088 3.712,-2.816 0,-0.064 0,-0.192 0.064,-0.192 0.128,-0.256 1.6,-2.624 2.048,-4.928 0.448,-2.368 0.448,-5.248 0,-4.48 -1.024,-7.296 -1.024,-2.88 -2.752,-4.544 -1.664,-1.664 -3.904,-2.304 -2.24,-0.64 -4.736,-0.64 -0.128,0 -1.024,0 -0.832,0 -1.856,0 -0.96,0 -1.856,0.064 -0.896,0.064 -0.96,0.128 l -0.128,0.128 z"
         id="path29" />
      <path
         style="fill:#bffff2"
         d="m 207.09737,628.36863 h -28.48 v -8.448 h 28.48 z m 9.47198,-55.04 q 0.576,0 1.984,-0.064 1.408,-0.064 2.944,-0.064 1.6,-0.064 3.008,-0.128 1.408,-0.064 1.984,-0.064 3.712,0 6.4,0.32 2.752,0.256 5.184,1.024 7.872,2.816 7.872,11.584 0,4.16 -1.792,7.168 -1.792,3.008 -5.376,4.544 0.256,0.192 0.512,0.512 0.256,0.256 0.384,0.512 l 3.712,8.192 q 0.064,0.064 0.064,0.32 0.064,0.192 0.128,0.256 0.896,2.112 1.792,4.352 0.96,2.176 1.92,4.288 v 0.128 h -9.216 q -1.28,-3.072 -2.56,-6.016 -1.216,-2.944 -2.496,-6.016 -0.192,-0.064 -0.384,-0.704 -0.192,-0.704 -0.512,-1.472 -0.256,-0.832 -0.64,-1.472 -0.384,-0.64 -0.96,-0.64 h -8.256 v 16.32 h -8.704 v -42.432 q 0,0 0.256,-0.064 0.32,-0.064 0.768,-0.128 0.448,-0.128 0.96,-0.192 0.576,-0.064 1.024,-0.064 z m 5.888,19.52 q 3.2,0 5.888,0.064 2.688,0 4.608,-0.512 1.92,-0.512 3.008,-1.856 1.088,-1.344 1.088,-4.096 0,-2.176 -0.704,-3.456 -0.704,-1.28 -1.92,-1.92 -1.216,-0.704 -2.816,-0.896 -1.6,-0.192 -3.392,-0.192 -1.6,0 -2.88,0 -1.28,0 -2.88,0.192 z m 49.15196,-19.52 h 9.536 l 16.448,42.88 h -9.216 l -3.52,-9.216 h -16.96 l -3.712,9.216 h -8.96 z m -1.536,26.432 h 12.544 l -6.4,-17.856 z m 51.64798,-26.624 q 0.32,0 0.896,0 0.576,0 1.152,0.064 0.576,0 0.96,0 0.448,0 0.512,0 2.944,0.064 5.76,1.024 2.816,0.896 5.184,2.56 2.432,1.6 4.224,3.968 1.792,2.368 2.624,5.312 0.576,2.24 0.768,4.352 0.256,2.112 0.256,4.352 0,4.544 -1.216,8.64 -1.152,4.096 -4.288,7.488 -0.128,0.064 -0.384,0.256 -0.256,0.192 -0.32,0.32 -1.152,1.152 -2.816,2.048 -1.6,0.832 -3.264,1.472 -1.6,0.576 -3.136,0.896 -1.472,0.32 -2.368,0.32 h -18.432 v -42.304 q 0,-0.192 1.664,-0.32 1.728,-0.128 3.968,-0.192 2.304,-0.128 4.608,-0.192 2.368,-0.064 3.648,-0.064 z m -5.12,36.096 h 7.424 q 2.368,0 4.48,-1.024 2.176,-1.088 3.712,-2.816 0,-0.064 0,-0.192 0.064,-0.192 0.128,-0.256 1.6,-2.624 2.048,-4.928 0.448,-2.368 0.448,-5.248 0,-4.48 -1.024,-7.296 -1.024,-2.88 -2.752,-4.544 -1.664,-1.664 -3.904,-2.304 -2.24,-0.64 -4.736,-0.64 -0.128,0 -1.024,0 -0.832,0 -1.856,0 -0.96,0 -1.856,0.064 -0.896,0.064 -0.96,0.128 l -0.128,0.128 z m 52.54394,-35.776 h 8.64 v 42.752 h -8.64 z m 31.35996,0.192 q 1.792,-0.32 3.264,-0.448 1.536,-0.128 3.392,-0.128 1.792,0 3.328,0.128 1.536,0.128 3.328,0.448 0.128,0.128 0.32,0.128 3.84,1.28 6.976,3.648 3.2,2.368 5.184,6.912 1.088,2.496 1.408,5.312 0.384,2.752 0.384,5.44 0,2.752 -0.448,5.44 -0.384,2.624 -1.344,5.184 -0.448,1.216 -1.472,2.496 -0.96,1.28 -1.472,2.368 -3.52,3.52 -7.424,4.992 -3.84,1.408 -8.768,1.408 -3.584,0 -6.656,-0.704 -3.072,-0.704 -5.632,-2.24 -2.496,-1.6 -4.416,-4.032 -1.856,-2.496 -3.008,-6.08 -0.384,-1.28 -0.768,-2.56 -0.32,-1.28 -0.32,-2.624 v -7.424 q 0,-0.128 0.128,-0.896 0.128,-0.832 0.192,-1.216 0.832,-4.288 3.072,-7.936 2.24,-3.648 6.272,-5.824 0.512,-0.256 1.216,-0.512 0.768,-0.32 1.408,-0.512 0.704,-0.256 1.216,-0.448 0.512,-0.192 0.64,-0.32 z m -4.928,21.44 q 0,3.008 0.384,5.696 0.448,2.688 1.664,4.736 1.28,1.984 3.456,3.2 2.24,1.152 5.824,1.152 3.712,0 6.016,-1.088 2.304,-1.088 3.584,-3.008 1.28,-1.984 1.728,-4.736 0.512,-2.752 0.512,-6.016 0,-3.136 -0.512,-5.824 -0.448,-2.752 -1.728,-4.736 -1.28,-1.984 -3.52,-3.136 -2.24,-1.152 -5.824,-1.152 -3.776,0 -6.08,1.216 -2.24,1.152 -3.456,3.2 -1.216,1.984 -1.664,4.736 -0.384,2.688 -0.384,5.76 z m 61.11994,-21.632 h 8.704 v 16.064 h 17.216 v -16.064 h 8.64 v 42.752 h -8.64 v -18.368 h -17.216 v 18.368 h -8.704 z m 75.45597,0 v 7.488 h -19.904 v 9.536 h 18.112 v 7.424 h -18.112 v 11.136 h 20.48 v 7.168 h -29.248 v -42.752 z m 24.95988,-0.128 h 9.536 l 16.448,42.88 h -9.216 l -3.52,-9.216 h -16.96 l -3.712,9.216 h -8.96 z m -1.536,26.432 h 12.544 l -6.4,-17.856 z m 68.54397,-26.624 q 0.32,0 0.896,0 0.576,0 1.152,0.064 0.576,0 0.96,0 0.448,0 0.512,0 2.944,0.064 5.76,1.024 2.816,0.896 5.184,2.56 2.432,1.6 4.224,3.968 1.792,2.368 2.624,5.312 0.576,2.24 0.768,4.352 0.256,2.112 0.256,4.352 0,4.544 -1.216,8.64 -1.152,4.096 -4.288,7.488 -0.128,0.064 -0.384,0.256 -0.256,0.192 -0.32,0.32 -1.152,1.152 -2.816,2.048 -1.6,0.832 -3.264,1.472 -1.6,0.576 -3.136,0.896 -1.472,0.32 -2.368,0.32 h -18.432 v -42.304 q 0,-0.192 1.664,-0.32 1.728,-0.128 3.968,-0.192 2.304,-0.128 4.608,-0.192 2.368,-0.064 3.648,-0.064 z m -5.12,36.096 h 7.424 q 2.368,0 4.48,-1.024 2.176,-1.088 3.712,-2.816 0,-0.064 0,-0.192 0.064,-0.192 0.128,-0.256 1.6,-2.624 2.048,-4.928 0.448,-2.368 0.448,-5.248 0,-4.48 -1.024,-7.296 -1.024,-2.88 -2.752,-4.544 -1.664,-1.664 -3.904,-2.304 -2.24,-0.64 -4.736,-0.64 -0.128,0 -1.024,0 -0.832,0 -1.856,0 -0.96,0 -1.856,0.064 -0.896,0.064 -0.96,0.128 l -0.128,0.128 z"
         id="path31" />
    </g>
    <text
       xml:space="preserve"
       transform="scale(0.26458333)"
       id="text5"
       style="font-style:normal;font-variant:normal;font-weight:normal;font-stretch:normal;font-size:64px;font-family:'Roadgeek 2005 Series 6W';-inkscape-font-specification:'Roadgeek 2005 Series 6W';text-align:center;white-space:pre;shape-inside:url(#rect5);fill:#5ebfff;fill-opacity:1" />
    <text
       xml:space="preserve"
       style="font-style:normal;font-variant:normal;font-weight:normal;font-stretch:normal;font-size:16.9333px;font-family:'Roadgeek 2005 Series 6W';-inkscape-font-specification:'Roadgeek 2005 Series 6W';text-align:center;text-anchor:middle;fill:#5ebfff;fill-opacity:1;stroke-width:0.264583"
       x="105.94707"
       y="235.70828"
       id="text8"><tspan
         sodipodi:role="line"
         id="tspan8"
         style="stroke-width:0.264583"
         x="105.94707"
         y="235.70828" /></text>
  </g>
</svg>
